<svg width="128" height="128" viewBox="0 0 128 128" xmlns="http://www.w3.org/2000/svg">
  <title>doc</title>
  <g fill="#107f8c">
    <path fill-rule="evenodd" d="M31 34C31 30.134 34.134 27 38 27H90C93.866 27 97 30.134 97 34V94C97 97.866 93.866 101 90 101H66.1302C64.5225 101 62.9639 100.447 61.7161 99.4328L33.5859 76.577C31.9499 75.2477 31 73.2521 31 71.1442V34ZM34.8115 74.9956C34.8233 75.0054 34.8352 75.0151 34.847 75.0247L62.9773 97.8806C63.0259 97.9201 63.0751 97.9586 63.125 97.9961C63.0434 97.6776 63 97.3439 63 97V80C63 77.2386 60.7614 75 58 75H35C34.9368 75 34.874 74.9985 34.8115 74.9956ZM67 99C65.8954 99 65 98.1046 65 97V80C65 76.134 61.866 73 58 73H35C33.8954 73 33 72.1046 33 71V34C33 31.2386 35.2386 29 38 29H90C92.7614 29 95 31.2386 95 34V94C95 96.7614 92.7614 99 90 99H67Z"></path>
    <path d="M44 40C44 39.4477 44.4477 39 45 39H83C83.5523 39 84 39.4477 84 40C84 40.5523 83.5523 41 83 41H45C44.4477 41 44 40.5523 44 40ZM44 52C44 51.4477 44.4477 51 45 51H83C83.5523 51 84 51.4477 84 52C84 52.5523 83.5523 53 83 53H45C44.4477 53 44 52.5523 44 52ZM44 64C44 63.4477 44.4477 63 45 63H83C83.5523 63 84 63.4477 84 64C84 64.5523 83.5523 65 83 65H45C44.4477 65 44 64.5523 44 64ZM70 76C70 75.4477 70.4477 75 71 75H83C83.5523 75 84 75.4477 84 76C84 76.5523 83.5523 77 83 77H71C70.4477 77 70 76.5523 70 76ZM70 88C70 87.4477 70.4477 87 71 87H83C83.5523 87 84 87.4477 84 88C84 88.5523 83.5523 89 83 89H71C70.4477 89 70 88.5523 70 88Z"></path>
  </g>
</svg>